<svg width="75" height="25" viewBox="0 0 75 25" fill="none" xmlns="http://www.w3.org/2000/svg">
<g clip-path="url(#clip0_2258_5590)">
<path fill-rule="evenodd" clip-rule="evenodd" d="M9.6266 19.0136C7.76358 17.6423 6.6184 15.3636 6.6184 12.6436V12.5741C6.6184 8.41569 9.73018 4.9588 13.6422 4.9588C16.4655 4.9588 18.1426 5.86861 20.028 7.44229L23.4185 3.35686C20.8682 1.19232 18.212 0 13.8151 0C6.41013 0 1 5.69444 1 12.6436V12.713C1 16.8384 2.70641 20.3448 5.58862 22.6023L9.6266 19.0136Z" fill="#1C2B4A"/>
<path fill-rule="evenodd" clip-rule="evenodd" d="M10.494 19.5487L6.39844 23.1821C7.09633 23.6376 7.85661 24.0261 8.66395 24.3474L13.0031 20.3302L13.7139 19.6652L14.3813 20.3891C14.7403 20.3761 15.0863 20.3467 15.4217 20.3008L19.0842 16.8298L21.2662 14.7594L19.0842 17.536V18.9248C18.8418 19.0979 18.5863 19.2603 18.3204 19.4063L19.27 20.5668L15.8395 24.5333L20.5129 22.5842L20.334 23.9131L20.207 24.8629L29.6774 19.4063L29.8856 19.2897L30.4412 21.2624L29.1454 24.0684L33.2069 22.3429L31.1944 24.8617H41.0285L34.6121 20.515L30.4176 17.6749L29.7409 17.217L27.566 18.2763L24.2848 15.0478L21.8205 12.6172L18.5686 15.4362L15.8029 17.8314L13.0196 17.3041L10.4916 19.5487H10.494Z" fill="#1C2B4A"/>
<path d="M69.7598 17.043C69.3341 17.043 68.9415 16.9336 68.5821 16.7148C68.2266 16.4961 67.9415 16.2051 67.7266 15.8418C67.5157 15.4746 67.4102 15.0723 67.4102 14.6348V14.084C67.4102 14.041 67.4298 14.0195 67.4688 14.0195H68.8165C68.8477 14.0195 68.8633 14.041 68.8633 14.084V14.6348C68.8633 14.8965 68.9512 15.1231 69.127 15.3145C69.3028 15.502 69.5137 15.5957 69.7598 15.5957C70.0098 15.5957 70.2227 15.5 70.3985 15.3086C70.5743 15.1133 70.6622 14.8887 70.6622 14.6348C70.6622 14.3418 70.4708 14.0859 70.088 13.8672C70.0255 13.8281 69.9434 13.7813 69.8419 13.7266C69.7442 13.668 69.627 13.6016 69.4903 13.5273C69.3536 13.4531 69.2208 13.3809 69.0919 13.3106C68.963 13.2363 68.838 13.166 68.7169 13.0996C68.2794 12.8418 67.9532 12.5195 67.7383 12.1328C67.5274 11.7422 67.4219 11.3047 67.4219 10.8203C67.4219 10.375 67.5313 9.97266 67.7501 9.61329C67.9688 9.25782 68.254 8.97657 68.6055 8.76954C68.961 8.5586 69.3458 8.45312 69.7598 8.45312C70.1856 8.45312 70.5762 8.5586 70.9317 8.76954C71.2872 8.98438 71.5704 9.26954 71.7813 9.625C71.9962 9.98047 72.1036 10.3789 72.1036 10.8203V11.8047C72.1036 11.8359 72.088 11.8516 72.0567 11.8516H70.7091C70.6778 11.8516 70.6622 11.8359 70.6622 11.8047L70.6505 10.8203C70.6505 10.5391 70.5626 10.3106 70.3868 10.1348C70.211 9.95899 70.002 9.87109 69.7598 9.87109C69.5137 9.87109 69.3028 9.96485 69.127 10.1523C68.9512 10.3398 68.8633 10.5625 68.8633 10.8203C68.8633 11.082 68.918 11.3008 69.0274 11.4766C69.1407 11.6523 69.3458 11.8203 69.6426 11.9805C69.6739 11.9961 69.7462 12.0352 69.8594 12.0977C69.9727 12.1602 70.0977 12.2305 70.2344 12.3086C70.3751 12.3828 70.502 12.4512 70.6153 12.5137C70.7286 12.5723 70.7969 12.6074 70.8204 12.6191C71.2188 12.8418 71.5333 13.1152 71.7637 13.4395C71.9981 13.7637 72.1153 14.1621 72.1153 14.6348C72.1153 15.0918 72.0098 15.502 71.7989 15.8652C71.5841 16.2285 71.2989 16.5156 70.9434 16.7266C70.588 16.9375 70.1934 17.043 69.7598 17.043Z" fill="#C8A752"/>
<path d="M66.6074 16.9199H62.7285C62.6972 16.9199 62.6816 16.9004 62.6816 16.8613L62.6933 8.61718C62.6933 8.58593 62.709 8.57031 62.7402 8.57031H66.5957C66.6269 8.57031 66.6425 8.58984 66.6425 8.6289V9.9707C66.6425 10.0019 66.6269 10.0175 66.5957 10.0175H64.1347V11.8925H66.5957C66.6269 11.8925 66.6425 11.9082 66.6425 11.9394L66.6543 13.2988C66.6543 13.33 66.6386 13.3457 66.6074 13.3457H64.1347V15.4433H66.6074C66.6386 15.4433 66.6543 15.4629 66.6543 15.5019V16.873C66.6543 16.9043 66.6386 16.9199 66.6074 16.9199Z" fill="#C8A752"/>
<path d="M59.4941 17.043C59.0683 17.043 58.6757 16.9336 58.3164 16.7148C57.9609 16.4961 57.6757 16.2051 57.4609 15.8418C57.25 15.4746 57.1445 15.0723 57.1445 14.6348V14.084C57.1445 14.041 57.164 14.0195 57.2031 14.0195H58.5507C58.582 14.0195 58.5976 14.041 58.5976 14.084V14.6348C58.5976 14.8965 58.6855 15.1231 58.8613 15.3145C59.0371 15.502 59.248 15.5957 59.4941 15.5957C59.7441 15.5957 59.957 15.5 60.1328 15.3086C60.3086 15.1133 60.3965 14.8887 60.3965 14.6348C60.3965 14.3418 60.205 14.0859 59.8222 13.8672C59.7597 13.8281 59.6777 13.7813 59.5761 13.7266C59.4785 13.668 59.3613 13.6016 59.2246 13.5273C59.0879 13.4531 58.955 13.3809 58.8261 13.3106C58.6972 13.2363 58.5722 13.166 58.4511 13.0996C58.0136 12.8418 57.6875 12.5195 57.4726 12.1328C57.2617 11.7422 57.1562 11.3047 57.1562 10.8203C57.1562 10.375 57.2656 9.97266 57.4843 9.61329C57.7031 9.25782 57.9882 8.97657 58.3398 8.76954C58.6953 8.5586 59.08 8.45312 59.4941 8.45312C59.9199 8.45312 60.3105 8.5586 60.666 8.76954C61.0215 8.98438 61.3047 9.26954 61.5156 9.625C61.7304 9.98047 61.8379 10.3789 61.8379 10.8203V11.8047C61.8379 11.8359 61.8222 11.8516 61.791 11.8516H60.4433C60.4121 11.8516 60.3965 11.8359 60.3965 11.8047L60.3847 10.8203C60.3847 10.5391 60.2968 10.3106 60.1211 10.1348C59.9453 9.95899 59.7363 9.87109 59.4941 9.87109C59.248 9.87109 59.0371 9.96485 58.8613 10.1523C58.6855 10.3398 58.5976 10.5625 58.5976 10.8203C58.5976 11.082 58.6523 11.3008 58.7617 11.4766C58.875 11.6523 59.08 11.8203 59.3769 11.9805C59.4082 11.9961 59.4804 12.0352 59.5937 12.0977C59.707 12.1602 59.832 12.2305 59.9687 12.3086C60.1093 12.3828 60.2363 12.4512 60.3496 12.5137C60.4629 12.5723 60.5312 12.6074 60.5547 12.6191C60.9531 12.8418 61.2675 13.1152 61.498 13.4395C61.7324 13.7637 61.8496 14.1621 61.8496 14.6348C61.8496 15.0918 61.7441 15.502 61.5332 15.8652C61.3183 16.2285 61.0332 16.5156 60.6777 16.7266C60.3222 16.9375 59.9277 17.043 59.4941 17.043Z" fill="#C8A752"/>
<path d="M53.1954 16.9199H51.9942C51.9317 16.9199 51.9005 16.8925 51.9005 16.8379L51.8887 8.66406C51.8887 8.60156 51.92 8.57031 51.9825 8.57031H53.0665L55.0938 13.2988L55.0352 8.66406C55.0352 8.60156 55.0704 8.57031 55.1407 8.57031H56.3301C56.377 8.57031 56.4005 8.60156 56.4005 8.66406L56.4122 16.8496C56.4122 16.8964 56.3926 16.9199 56.3536 16.9199H55.2989L53.2188 12.5019L53.3067 16.8261C53.3067 16.8886 53.2696 16.9199 53.1954 16.9199Z" fill="#C8A752"/>
<path d="M50.7754 16.9199H46.8965C46.8652 16.9199 46.8496 16.9004 46.8496 16.8613L46.8613 8.61718C46.8613 8.58593 46.8769 8.57031 46.9082 8.57031H50.7636C50.7949 8.57031 50.8105 8.58984 50.8105 8.6289V9.9707C50.8105 10.0019 50.7949 10.0175 50.7636 10.0175H48.3027V11.8925H50.7636C50.7949 11.8925 50.8105 11.9082 50.8105 11.9394L50.8222 13.2988C50.8222 13.33 50.8066 13.3457 50.7754 13.3457H48.3027V15.4433H50.7754C50.8066 15.4433 50.8222 15.4629 50.8222 15.5019V16.873C50.8222 16.9043 50.8066 16.9199 50.7754 16.9199Z" fill="#C8A752"/>
<path d="M43.6211 17.0391C43.1875 17.0391 42.791 16.9297 42.4316 16.7109C42.0761 16.4922 41.7929 16.1992 41.582 15.832C41.375 15.4609 41.2715 15.0488 41.2715 14.5957L41.2832 10.8516C41.2832 10.4063 41.3847 10.0039 41.5879 9.64453C41.791 9.28125 42.0703 8.99023 42.4257 8.77148C42.7851 8.54883 43.1836 8.4375 43.6211 8.4375C44.0664 8.4375 44.4629 8.54492 44.8105 8.75977C45.1621 8.97461 45.4414 9.26563 45.6484 9.63281C45.8593 9.99609 45.9648 10.4024 45.9648 10.8516V11.4024C45.9648 11.4336 45.9492 11.4492 45.9179 11.4492H44.5703C44.539 11.4492 44.5234 11.4336 44.5234 11.4024V10.8516C44.5234 10.5859 44.4375 10.3574 44.2656 10.166C44.0937 9.97461 43.8789 9.87891 43.6211 9.87891C43.3359 9.87891 43.1172 9.97656 42.9648 10.1719C42.8125 10.3672 42.7363 10.5938 42.7363 10.8516V14.5957C42.7363 14.8887 42.8222 15.1289 42.9941 15.3164C43.166 15.5 43.375 15.5918 43.6211 15.5918C43.8789 15.5918 44.0937 15.4902 44.2656 15.2871C44.4375 15.0801 44.5234 14.8496 44.5234 14.5957V14.0391C44.5234 14.0078 44.539 13.9922 44.5703 13.9922H45.9297C45.9609 13.9922 45.9765 14.0078 45.9765 14.0391V14.5957C45.9765 15.0449 45.8711 15.4551 45.6601 15.8262C45.4453 16.1934 45.1621 16.4883 44.8105 16.7109C44.459 16.9297 44.0625 17.0391 43.6211 17.0391Z" fill="#C8A752"/>
<path d="M40.3106 16.9199H38.9512C38.9122 16.9199 38.8926 16.9004 38.8926 16.8613L38.9044 8.61718C38.9044 8.58593 38.92 8.57031 38.9512 8.57031H40.2989C40.3301 8.57031 40.3458 8.58593 40.3458 8.61718L40.3575 16.8613C40.3575 16.9004 40.3419 16.9199 40.3106 16.9199Z" fill="#C8A752"/>
<path d="M38.0488 16.9199H34.1699C34.1386 16.9199 34.123 16.9004 34.123 16.8613L34.1347 8.6289C34.1347 8.58984 34.1543 8.57031 34.1933 8.57031H35.5293C35.5683 8.57031 35.5879 8.58984 35.5879 8.6289L35.5761 15.4433H38.0488C38.0879 15.4433 38.1074 15.4629 38.1074 15.5019V16.8613C38.1074 16.9004 38.0879 16.9199 38.0488 16.9199Z" fill="#C8A752"/>
<path d="M30.8593 17.0391C30.4336 17.0391 30.041 16.9297 29.6816 16.7109C29.3261 16.4922 29.039 16.2012 28.8203 15.8379C28.6054 15.4707 28.498 15.0684 28.498 14.6309L28.5097 10.8281C28.5097 10.3828 28.6172 9.98242 28.832 9.62695C29.0429 9.26758 29.3281 8.98047 29.6875 8.76563C30.0468 8.54688 30.4375 8.4375 30.8593 8.4375C31.2968 8.4375 31.6894 8.54492 32.0371 8.75977C32.3886 8.97461 32.6699 9.26367 32.8808 9.62695C33.0957 9.98633 33.2031 10.3867 33.2031 10.8281L33.2148 14.6309C33.2148 15.0684 33.1093 15.4688 32.8984 15.832C32.6836 16.1992 32.3984 16.4922 32.0429 16.7109C31.6875 16.9297 31.2929 17.0391 30.8593 17.0391ZM30.8593 15.5918C31.1015 15.5918 31.3125 15.4942 31.4922 15.2988C31.6718 15.0996 31.7617 14.877 31.7617 14.6309L31.75 10.8281C31.75 10.5625 31.666 10.3379 31.498 10.1543C31.33 9.9707 31.1172 9.87891 30.8593 9.87891C30.6132 9.87891 30.4023 9.96875 30.2265 10.1484C30.0507 10.3281 29.9629 10.5547 29.9629 10.8281V14.6309C29.9629 14.8926 30.0507 15.1192 30.2265 15.3106C30.4023 15.4981 30.6132 15.5918 30.8593 15.5918Z" fill="#C8A752"/>
<path d="M26.3945 16.9199C26.3593 16.9199 25.1757 15.7617 24.9882 15.5839V10.0175H23.4297C23.3906 10.0175 23.3711 9.99803 23.3711 9.95898L23.3828 8.61718C23.3828 8.58593 23.3984 8.57031 23.4297 8.57031H27.9882C28.0312 8.57031 28.0527 8.58593 28.0527 8.61718V9.95898C28.0527 9.99803 28.0371 10.0175 28.0058 10.0175H26.4297L26.4414 16.8613C26.4414 16.9004 26.4257 16.9199 26.3945 16.9199Z" fill="#C8A752"/>
<path d="M19.1759 14.4199L18.1758 15.4199L18.2795 8.61718C18.2795 8.58593 18.2951 8.57031 18.3263 8.57031H20.6349C21.3693 8.57031 21.9494 8.79492 22.3752 9.24413C22.8048 9.68945 23.0197 10.2968 23.0197 11.0664C23.0197 11.6289 22.9084 12.1191 22.6857 12.5371C22.4591 12.9511 22.1662 13.2714 21.8068 13.498C21.4474 13.7246 21.0568 13.8379 20.6349 13.8379L19.6759 13.9199C19.6759 13.9199 19.8151 13.908 19.1759 14.4199ZM20.6349 9.99413L19.7209 10.0058V12.3847H20.6349C20.8888 12.3847 21.1095 12.2636 21.297 12.0214C21.4845 11.7754 21.5783 11.457 21.5783 11.0664C21.5783 10.7539 21.4943 10.498 21.3263 10.2988C21.1584 10.0957 20.9279 9.99413 20.6349 9.99413Z" fill="#C8A752"/>
<path d="M20.1758 16.9219H19.1758" stroke="black"/>
<path d="M15.9419 16.9199H14.5649C14.5376 16.9199 14.5239 16.9043 14.5239 16.873L14.5356 13.4629L12.9301 8.61718C12.9223 8.58593 12.9341 8.57031 12.9653 8.57031H14.3012C14.3403 8.57031 14.3637 8.58593 14.3716 8.61718L15.2563 11.8457L16.1587 8.61718C16.1665 8.58593 16.186 8.57031 16.2173 8.57031H17.5649C17.5962 8.57031 17.6079 8.58593 17.6001 8.61718L15.977 13.416L15.9887 16.873C15.9887 16.9043 15.9731 16.9199 15.9419 16.9199Z" fill="#C8A752"/>
<path d="M9.05664 16.9199H7.69726C7.66601 16.9199 7.65039 16.9004 7.65039 16.8613L7.67382 8.61718C7.67382 8.58593 7.68945 8.57031 7.7207 8.57031H10.1465C10.58 8.57031 10.9785 8.67577 11.3418 8.88671C11.705 9.09765 11.9941 9.38085 12.209 9.73632C12.4277 10.0918 12.5371 10.4941 12.5371 10.9433C12.5371 11.2363 12.4922 11.5019 12.4023 11.7402C12.3125 11.9785 12.207 12.1797 12.0859 12.3437C11.9687 12.5078 11.8613 12.6289 11.7636 12.707C12.1972 13.1875 12.414 13.7519 12.414 14.4004L12.4257 16.8613C12.4257 16.9004 12.4062 16.9199 12.3672 16.9199H11.0078C10.9765 16.9199 10.9609 16.9082 10.9609 16.8847V14.4004C10.9609 14.1113 10.8593 13.8613 10.6562 13.6504C10.4531 13.4394 10.2031 13.3339 9.90625 13.3339H9.11523L9.10351 16.8613C9.10351 16.9004 9.08789 16.9199 9.05664 16.9199ZM10.1465 10.0058H9.11523V11.8925H10.1465C10.3925 11.8925 10.6113 11.8007 10.8027 11.6172C10.998 11.4336 11.0957 11.2089 11.0957 10.9433C11.0957 10.6894 11.0019 10.4707 10.8144 10.2871C10.6269 10.0996 10.4043 10.0058 10.1465 10.0058Z" fill="#C8A752"/>
</g>
<defs>
<clipPath id="clip0_2258_5590">
<rect width="75" height="25" fill="white"/>
</clipPath>
</defs>
</svg>
